# xmcd CD database file
# 
# Track frame offsets:
# 	150
# 	14794
# 	33484
# 	51308
# 	70802
# 	91635
# 	112875
# 	131493
# 	149242
# 	161208
# 	176618
# 	188286
# 	222101
# 
# Disc length: 3357 seconds
# 
# Submitted via: Nero 5.5.9.0
# 
# Revision: 0
# Processed by: cddbd v1.4PL0 Copyright (c) Steve Scherf et al.
#
DISCID=b80d1b0d
DTITLE=Various Artist - Larry Joe Taylor's 13th Annual Texas Music Festival
DYEAR=1900
DGENRE=
TTITLE0=Roger Creager - Mother's a Redneck
TTITLE1=Davin James - Magnolia
TTITLE2=Jerry Jeff Walker - Sangria Wine
TTITLE3=Adam Carrol - Red Bandanna Blues
TTITLE4=Joe Pat Hennen - Good Buy To Amarillo
TTITLE5=Reckless Kelly - Walk Out Now
TTITLE6=Cross Canadian Ragweed - 42 Miles
TTITLE7=South By Southwest - Southern Town
TTITLE8=Steve Fromholz - I Gave Her A Ring
TTITLE9=Tommy Alverson - Me On The Jukebox
TTITLE10=Teri Hendrix - Wallet
TTITLE11=Larry Joe Taylor - American Dream
TTITLE12=Rusty Wier - Don't It Make You Wanna Dance
EXTD=
EXTT0=
EXTT1=
EXTT2=
EXTT3=
EXTT4=
EXTT5=
EXTT6=
EXTT7=
EXTT8=
EXTT9=
EXTT10=
EXTT11=
EXTT12=
PLAYORDER=
